<mxfile host="app.diagrams.net" modified="2021-03-24T03:14:32.492Z" agent="5.0 (Macintosh; Intel Mac OS X 10_15_2) AppleWebKit/537.36 (KHTML, like Gecko) Chrome/89.0.4389.90 Safari/537.36" etag="586xaKLVqCUJI32HiSx1" version="14.5.0" type="github">
  <diagram id="vUGOujwRfQkUoNaOfnRk" name="Page-1">
    <mxGraphModel dx="1298" dy="743" grid="1" gridSize="10" guides="1" tooltips="1" connect="1" arrows="1" fold="1" page="1" pageScale="1" pageWidth="827" pageHeight="1169" math="0" shadow="0">
      <root>
        <mxCell id="0" />
        <mxCell id="1" parent="0" />
        <mxCell id="NLezybTKjXzrQGOWKjKE-1" value="" style="rounded=0;whiteSpace=wrap;html=1;" vertex="1" parent="1">
          <mxGeometry x="160" y="490" width="600" height="590" as="geometry" />
        </mxCell>
        <mxCell id="NLezybTKjXzrQGOWKjKE-2" value="安全攻防平台" style="rounded=0;whiteSpace=wrap;html=1;" vertex="1" parent="1">
          <mxGeometry x="200" y="350" width="150" height="60" as="geometry" />
        </mxCell>
        <mxCell id="NLezybTKjXzrQGOWKjKE-4" value="商业化创新平台" style="rounded=0;whiteSpace=wrap;html=1;" vertex="1" parent="1">
          <mxGeometry x="386" y="350" width="136" height="60" as="geometry" />
        </mxCell>
        <mxCell id="NLezybTKjXzrQGOWKjKE-5" value="......" style="rounded=0;whiteSpace=wrap;html=1;" vertex="1" parent="1">
          <mxGeometry x="560" y="350" width="120" height="60" as="geometry" />
        </mxCell>
      </root>
    </mxGraphModel>
  </diagram>
</mxfile>
